<svg xmlns="http://www.w3.org/2000/svg" width="100%" height="100%" viewBox="0 0 96 96" fill-rule="evenodd" stroke-linecap="round" stroke-linejoin="round"><path d="M0 0h96v96H0z" fill="#1f2937"/><path d="M19.25 48.419l26.403-26.406a3.32 3.32 0 0 1 4.691 0L76.75 48.419m-50.865-6.635V71.64a3.32 3.32 0 0 0 3.317 3.317h12.163V60.583a3.32 3.32 0 0 1 3.317-3.317h6.635a3.32 3.32 0 0 1 3.317 3.317v14.375h12.163a3.32 3.32 0 0 0 3.317-3.317V41.785M36.942 74.958h24.327" fill="none" stroke="#fff" stroke-width="4.423"/></svg>